<?xml version="1.0" encoding="UTF-8"?>
<svg width="47px" height="47px" viewBox="0 0 47 47" version="1.1" xmlns="http://www.w3.org/2000/svg" xmlns:xlink="http://www.w3.org/1999/xlink">
    <!-- Generator: Sketch 50 (54983) - http://www.bohemiancoding.com/sketch -->
    <title>Shape</title>
    <desc>Created with Sketch.</desc>
    <defs></defs>
    <g id="Page-1" stroke="none" stroke-width="1" fill="none" fill-rule="evenodd">
        <g id="Desktop-HD" transform="translate(-436.000000, -923.000000)" fill="#FFFFFF" fill-rule="nonzero">
            <g id="Group-7" transform="translate(80.000000, 728.000000)">
                <g id="Group-4">
                    <g id="Portfolio-item">
                        <path d="M380,215 L376,215 L376,219 C376,220.104569 375.104569,221 374,221 L374,221 C372.895431,221 372,220.104569 372,219 L372,215 L368,215 C366.895431,215 366,214.104569 366,213 L366,213 C366,211.895431 366.895431,211 368,211 L372,211 L372,207 C372,205.895431 372.895431,205 374,205 L374,205 C375.104569,205 376,205.895431 376,207 L376,211 L380,211 C381.104569,211 382,211.895431 382,213 L382,213 C382,214.104569 381.104569,215 380,215 Z M395.516,240.172 L383.57,228.226 C380.794,229.974 377.522,231 374,231 C364.058,231 356,222.942 356,213 C356,203.058 364.058,195 374,195 C383.942,195 392,203.058 392,213 C392,216.522 390.972,219.796 389.226,222.57 L401.172,234.516 C402.733861,236.077861 402.733861,238.610139 401.172,240.172 L401.172,240.172 C399.610139,241.733861 397.077861,241.733861 395.516,240.172 Z M374,227 C381.718,227 388,220.72 388,213 C388,205.28 381.718,199 374,199 C366.282,199 360,205.28 360,213 C360,220.72 366.282,227 374,227 Z" id="Shape"></path>
                    </g>
                </g>
            </g>
        </g>
    </g>
</svg>